<svg xmlns="http://www.w3.org/2000/svg" viewBox="0 0 64 64" fill="none">
  <rect width="64" height="64" rx="14" fill="#0F172A"/>
  <circle cx="32" cy="32" r="24" stroke="#FACC15" stroke-width="2.5"/>
  <circle cx="32" cy="32" r="20.5" stroke="#FACC15" stroke-width="1"/>
  <rect x="30" y="12" width="4" height="40" rx="2" transform="rotate(-30 32 32)" fill="#FACC15"/>
  <circle cx="26" cy="18" r="1.8" fill="#F8FAFC"/>
  <circle cx="28.5" cy="24" r="1.8" fill="#F8FAFC"/>
  <circle cx="31" cy="30" r="1.8" fill="#F8FAFC"/>
  <circle cx="33.5" cy="36" r="1.8" fill="#F8FAFC"/>
  <path d="M31 11C27 4 17 4 21 14C24 19 29 16 31 11Z" fill="#0F6E56" stroke="#FACC15" stroke-width="1.2"/>
  <path d="M25 9C23 5 18 5 20 11C22 13 24 12 25 9Z" fill="#FB923C"/>
  <circle cx="22.5" cy="8.5" r="2" fill="#FACC15"/>
  <path d="M36 14C33 6 23 6 27 15C30 20 34 17 36 14Z" fill="#0F6E56" stroke="#FACC15" stroke-width="1.2"/>
  <path d="M30 12C28 7 23 7 25 13C27 16 29 14 30 12Z" fill="#FB923C"/>
  <circle cx="27" cy="11" r="2" fill="#FACC15"/>
  <text x="12" y="37" fill="#F8FAFC" font-size="15" font-weight="700" font-family="Georgia, serif">N</text>
  <text x="38" y="37" fill="#F8FAFC" font-size="15" font-weight="700" font-family="Georgia, serif">H</text>
</svg>
